<?xml version="1.0" encoding="UTF-8" standalone="no"?>
<svg
   xmlns:dc="http://purl.org/dc/elements/1.1/"
   xmlns:cc="http://creativecommons.org/ns#"
   xmlns:rdf="http://www.w3.org/1999/02/22-rdf-syntax-ns#"
   xmlns:svg="http://www.w3.org/2000/svg"
   xmlns="http://www.w3.org/2000/svg"
   xmlns:sodipodi="http://sodipodi.sourceforge.net/DTD/sodipodi-0.dtd"
   xmlns:inkscape="http://www.inkscape.org/namespaces/inkscape"
   width="512"
   height="512"
   id="svg2"
   version="1.1"
   inkscape:version="0.91 r13725"
   sodipodi:docname="icon.svg">
  <metadata
     id="metadata16">
    <rdf:RDF>
      <cc:Work
         rdf:about="">
        <dc:format>image/svg+xml</dc:format>
        <dc:type
           rdf:resource="http://purl.org/dc/dcmitype/StillImage" />
        <dc:title></dc:title>
      </cc:Work>
    </rdf:RDF>
  </metadata>
  <defs
     id="defs14" />
  <sodipodi:namedview
     pagecolor="#ffffff"
     bordercolor="#666666"
     borderopacity="1"
     objecttolerance="10"
     gridtolerance="10"
     guidetolerance="10"
     inkscape:pageopacity="0"
     inkscape:pageshadow="2"
     inkscape:window-width="1600"
     inkscape:window-height="878"
     id="namedview12"
     showgrid="false"
     inkscape:snap-page="true"
     inkscape:zoom="0.79217877"
     inkscape:cx="418.46615"
     inkscape:cy="346.51269"
     inkscape:window-x="1592"
     inkscape:window-y="-8"
     inkscape:window-maximized="1"
     inkscape:current-layer="svg2" />
  <rect
     style="fill:#0a5796;fill-opacity:1;stroke:none"
     id="rect4711"
     width="512"
     height="512"
     x="0"
     y="0"
     ry="26.509169" />
  <g
     style="fill:#1771b7;fill-opacity:1;stroke:#ffffff;stroke-width:0.67768413;stroke-miterlimit:4;stroke-dasharray:none;stroke-opacity:1"
     id="g4"
     transform="matrix(3.114094,0,0,3.127324,23.999997,142.60177)">
    <polygon
       points="49.7,47.7 49.7,4.3 46.6,1.2 34.1,1.2 31,4.3 31,16.7 15.5,1.2 3.1,1.2 0,4.3 0,47.7 3.1,50.8 15.5,50.8 18.6,47.7 18.6,35.3 34.1,50.8 46.6,50.8 "
       id="polygon6"
       style="fill:#1771b7;fill-opacity:1;stroke:#ffffff;stroke-width:0.67768413;stroke-miterlimit:4;stroke-dasharray:none;stroke-opacity:1" />
    <polygon
       points="83.8,1.2 80.7,4.3 80.7,10.5 74.5,16.7 68.3,10.5 68.3,4.3 65.2,1.2 52.8,1.2 49.7,4.3 49.7,22.9 65.2,38.4 65.2,47.7 68.3,50.8 80.7,50.8 83.8,47.7 83.8,38.4 99.3,22.9 99.3,10.5 99.3,4.3 96.2,1.2 "
       id="polygon8"
       style="fill:#1771b7;fill-opacity:1;stroke:#ffffff;stroke-width:0.67768413;stroke-miterlimit:4;stroke-dasharray:none;stroke-opacity:1" />
    <polygon
       points="149,19.8 149,10.5 139.7,1.2 108.6,1.2 99.3,10.5 99.3,41.5 108.6,50.8 139.7,50.8 149,41.5 149,32.2 145.9,29.1 130.4,29.1 130.4,32.2 118,32.2 118,19.8 130.4,19.8 130.4,22.9 145.9,22.9 "
       id="polygon10"
       style="fill:#1771b7;fill-opacity:1;stroke:#ffffff;stroke-width:0.67768413;stroke-miterlimit:4;stroke-dasharray:none;stroke-opacity:1" />
  </g>
  <text
     xml:space="preserve"
     style="font-style:normal;font-weight:normal;font-size:40px;line-height:125%;font-family:sans-serif;letter-spacing:0px;word-spacing:0px;fill:#ffffff;fill-opacity:1;stroke:none;stroke-width:1px;stroke-linecap:butt;stroke-linejoin:miter;stroke-opacity:1"
     x="16.507813"
     y="121.78102"
     id="text4729"
     sodipodi:linespacing="125%"><tspan
       sodipodi:role="line"
       id="tspan4731"
       x="16.507813"
       y="121.78102"
       style="font-style:normal;font-variant:normal;font-weight:bold;font-stretch:normal;font-size:80px;font-family:sans-serif;-inkscape-font-specification:'sans-serif Bold';fill:#ffffff;fill-opacity:1">HomeBase</tspan></text>
  <g
     id="g4800"
     transform="translate(0,10)">
    <text
       sodipodi:linespacing="125%"
       id="text4729-8"
       y="368.17523"
       x="64.359375"
       style="font-style:normal;font-weight:normal;font-size:40px;line-height:125%;font-family:sans-serif;letter-spacing:0px;word-spacing:0px;fill:#ffffff;fill-opacity:1;stroke:none;stroke-width:1px;stroke-linecap:butt;stroke-linejoin:miter;stroke-opacity:1"
       xml:space="preserve"><tspan
         style="font-style:normal;font-variant:normal;font-weight:bold;font-stretch:normal;font-size:80px;font-family:sans-serif;-inkscape-font-specification:'sans-serif Bold';fill:#ffffff;fill-opacity:1"
         y="368.17523"
         x="64.359375"
         id="tspan4731-4"
         sodipodi:role="line">Location</tspan></text>
    <text
       sodipodi:linespacing="125%"
       id="text4729-8-9"
       y="439.17212"
       x="110.33594"
       style="font-style:normal;font-weight:normal;font-size:40px;line-height:125%;font-family:sans-serif;letter-spacing:0px;word-spacing:0px;fill:#ffffff;fill-opacity:1;stroke:none;stroke-width:1px;stroke-linecap:butt;stroke-linejoin:miter;stroke-opacity:1"
       xml:space="preserve"><tspan
         style="font-style:normal;font-variant:normal;font-weight:bold;font-stretch:normal;font-size:80px;font-family:sans-serif;-inkscape-font-specification:'sans-serif Bold';fill:#ffffff;fill-opacity:1"
         y="439.17212"
         x="110.33594"
         id="tspan4731-4-6"
         sodipodi:role="line">Finder</tspan></text>
  </g>
</svg>
